<svg height="2606" width="720" xmlns="http://www.w3.org/2000/svg">
<rect height="2606" fill="#555" width="720"></rect>
<text fill="#7f7" font-family="Courier New" font-size="12" xml:space="preserve">
<tspan x="10" y="26">39 megabytes installed</tspan>
<tspan x="10" y="42"></tspan>
<tspan x="10" y="58">node_modules</tspan>
<tspan x="10" y="74">└─┬ testling@1.7.1 </tspan>
<tspan x="10" y="90">  ├─┬ bouncy@3.2.2 </tspan>
<tspan x="10" y="106">  │ ├── optimist@0.3.7 </tspan>
<tspan x="10" y="122">  │ └── through@2.3.8 </tspan>
<tspan x="10" y="138">  ├─┬ browser-launcher@0.3.5 </tspan>
<tspan x="10" y="154">  │ ├── headless@0.1.3 </tspan>
<tspan x="10" y="170">  │ ├── merge@1.0.0 </tspan>
<tspan x="10" y="186">  │ ├── minimist@0.0.5 </tspan>
<tspan x="10" y="202">  │ ├── mkdirp@0.3.5 </tspan>
<tspan x="10" y="218">  │ ├─┬ plist@0.2.1 </tspan>
<tspan x="10" y="234">  │ │ └── sax@0.1.5 </tspan>
<tspan x="10" y="250">  │ └── xtend@4.0.1 </tspan>
<tspan x="10" y="266">  ├─┬ browserify@3.46.1 </tspan>
<tspan x="10" y="282">  │ ├── assert@1.1.2 </tspan>
<tspan x="10" y="298">  │ ├─┬ browser-pack@2.0.1 </tspan>
<tspan x="10" y="314">  │ │ ├─┬ combine-source-map@0.3.0 </tspan>
<tspan x="10" y="330">  │ │ │ ├── convert-source-map@0.3.5 </tspan>
<tspan x="10" y="346">  │ │ │ ├─┬ inline-source-map@0.3.1 </tspan>
<tspan x="10" y="362">  │ │ │ │ └── source-map@0.3.0 </tspan>
<tspan x="10" y="378">  │ │ │ └─┬ source-map@0.1.43 </tspan>
<tspan x="10" y="394">  │ │ │   └── amdefine@1.0.1 </tspan>
<tspan x="10" y="410">  │ │ └─┬ JSONStream@0.6.4 </tspan>
<tspan x="10" y="426">  │ │   └── through@2.2.7 </tspan>
<tspan x="10" y="442">  │ ├─┬ browser-resolve@1.2.4 </tspan>
<tspan x="10" y="458">  │ │ └── resolve@0.6.3 </tspan>
<tspan x="10" y="474">  │ ├─┬ browserify-zlib@0.1.4 </tspan>
<tspan x="10" y="490">  │ │ └── pako@0.2.9 </tspan>
<tspan x="10" y="506">  │ ├─┬ buffer@2.1.13 </tspan>
<tspan x="10" y="522">  │ │ ├── base64-js@0.0.8 </tspan>
<tspan x="10" y="538">  │ │ └── ieee754@1.1.8 </tspan>
<tspan x="10" y="554">  │ ├── builtins@0.0.7 </tspan>
<tspan x="10" y="570">  │ ├── commondir@0.0.1 </tspan>
<tspan x="10" y="586">  │ ├─┬ concat-stream@1.4.10 </tspan>
<tspan x="10" y="602">  │ │ ├─┬ readable-stream@1.1.14 </tspan>
<tspan x="10" y="618">  │ │ │ ├── core-util-is@1.0.2 </tspan>
<tspan x="10" y="634">  │ │ │ ├── isarray@0.0.1 </tspan>
<tspan x="10" y="650">  │ │ │ └── string_decoder@0.10.31 </tspan>
<tspan x="10" y="666">  │ │ └── typedarray@0.0.6 </tspan>
<tspan x="10" y="682">  │ ├── console-browserify@1.0.3 </tspan>
<tspan x="10" y="698">  │ ├── constants-browserify@0.0.1 </tspan>
<tspan x="10" y="714">  │ ├── crypto-browserify@1.0.9 </tspan>
<tspan x="10" y="730">  │ ├── deep-equal@0.1.2 </tspan>
<tspan x="10" y="746">  │ ├── defined@0.0.0 </tspan>
<tspan x="10" y="762">  │ ├─┬ deps-sort@0.1.2 </tspan>
<tspan x="10" y="778">  │ │ └─┬ JSONStream@0.6.4 </tspan>
<tspan x="10" y="794">  │ │   └── through@2.2.7 </tspan>
<tspan x="10" y="810">  │ ├─┬ derequire@0.8.0 </tspan>
<tspan x="10" y="826">  │ │ ├── esprima-fb@3001.1.0-dev-harmony-fb </tspan>
<tspan x="10" y="842">  │ │ ├─┬ esrefactor@0.1.0 </tspan>
<tspan x="10" y="858">  │ │ │ ├── escope@0.0.16 </tspan>
<tspan x="10" y="874">  │ │ │ ├── esprima@1.0.4 </tspan>
<tspan x="10" y="890">  │ │ │ └── estraverse@0.0.4 </tspan>
<tspan x="10" y="906">  │ │ └── estraverse@1.5.1 </tspan>
<tspan x="10" y="922">  │ ├── domain-browser@1.1.7 </tspan>
<tspan x="10" y="938">  │ ├── duplexer@0.1.1 </tspan>
<tspan x="10" y="954">  │ ├── events@1.0.2 </tspan>
<tspan x="10" y="970">  │ ├─┬ http-browserify@1.3.2 </tspan>
<tspan x="10" y="986">  │ │ └── Base64@0.2.1 </tspan>
<tspan x="10" y="1002">  │ ├── https-browserify@0.0.1 </tspan>
<tspan x="10" y="1018">  │ ├── inherits@2.0.3 </tspan>
<tspan x="10" y="1034">  │ ├─┬ insert-module-globals@6.0.0 </tspan>
<tspan x="10" y="1050">  │ │ ├── concat-stream@1.4.10 </tspan>
<tspan x="10" y="1066">  │ │ ├─┬ lexical-scope@1.1.1 </tspan>
<tspan x="10" y="1082">  │ │ │ └─┬ astw@2.2.0 </tspan>
<tspan x="10" y="1098">  │ │ │   └── acorn@4.0.11 </tspan>
<tspan x="10" y="1114">  │ │ ├── process@0.6.0 </tspan>
<tspan x="10" y="1130">  │ │ └── xtend@3.0.0 </tspan>
<tspan x="10" y="1146">  │ ├─┬ JSONStream@0.7.4 </tspan>
<tspan x="10" y="1162">  │ │ └── jsonparse@0.0.5 </tspan>
<tspan x="10" y="1178">  │ ├─┬ module-deps@2.0.6 </tspan>
<tspan x="10" y="1194">  │ │ ├── concat-stream@1.4.10 </tspan>
<tspan x="10" y="1210">  │ │ ├─┬ detective@3.1.0 </tspan>
<tspan x="10" y="1226">  │ │ │ └─┬ escodegen@1.1.0 </tspan>
<tspan x="10" y="1242">  │ │ │   ├── esprima@1.0.4 </tspan>
<tspan x="10" y="1258">  │ │ │   └── esutils@1.0.0 </tspan>
<tspan x="10" y="1274">  │ │ ├── duplexer2@0.0.2 </tspan>
<tspan x="10" y="1290">  │ │ ├── minimist@0.0.10 </tspan>
<tspan x="10" y="1306">  │ │ ├── parents@0.0.2 </tspan>
<tspan x="10" y="1322">  │ │ ├── resolve@0.6.3 </tspan>
<tspan x="10" y="1338">  │ │ └── stream-combiner@0.1.0 </tspan>
<tspan x="10" y="1354">  │ ├── os-browserify@0.1.2 </tspan>
<tspan x="10" y="1370">  │ ├─┬ parents@0.0.3 </tspan>
<tspan x="10" y="1386">  │ │ └── path-platform@0.0.1 </tspan>
<tspan x="10" y="1402">  │ ├── path-browserify@0.0.0 </tspan>
<tspan x="10" y="1418">  │ ├── process@0.7.0 </tspan>
<tspan x="10" y="1434">  │ ├── punycode@1.2.4 </tspan>
<tspan x="10" y="1450">  │ ├── querystring-es3@0.2.0 </tspan>
<tspan x="10" y="1466">  │ ├── resolve@0.6.3 </tspan>
<tspan x="10" y="1482">  │ ├── shell-quote@0.0.1 </tspan>
<tspan x="10" y="1498">  │ ├─┬ stream-browserify@0.1.3 </tspan>
<tspan x="10" y="1514">  │ │ └── process@0.5.2 </tspan>
<tspan x="10" y="1530">  │ ├── stream-combiner@0.0.4 </tspan>
<tspan x="10" y="1546">  │ ├── string_decoder@0.0.1 </tspan>
<tspan x="10" y="1562">  │ ├─┬ subarg@0.0.1 </tspan>
<tspan x="10" y="1578">  │ │ └── minimist@0.0.10 </tspan>
<tspan x="10" y="1594">  │ ├─┬ syntax-error@1.1.6 </tspan>
<tspan x="10" y="1610">  │ │ └── acorn@2.7.0 </tspan>
<tspan x="10" y="1626">  │ ├─┬ through2@0.4.2 </tspan>
<tspan x="10" y="1642">  │ │ ├─┬ readable-stream@1.0.34 </tspan>
<tspan x="10" y="1658">  │ │ │ └── string_decoder@0.10.31 </tspan>
<tspan x="10" y="1674">  │ │ └─┬ xtend@2.1.2 </tspan>
<tspan x="10" y="1690">  │ │   └── object-keys@0.4.0 </tspan>
<tspan x="10" y="1706">  │ ├─┬ timers-browserify@1.0.3 </tspan>
<tspan x="10" y="1722">  │ │ └── process@0.5.2 </tspan>
<tspan x="10" y="1738">  │ ├── tty-browserify@0.0.0 </tspan>
<tspan x="10" y="1754">  │ ├─┬ umd@2.0.0 </tspan>
<tspan x="10" y="1770">  │ │ ├─┬ rfile@1.0.0 </tspan>
<tspan x="10" y="1786">  │ │ │ ├── callsite@1.0.0 </tspan>
<tspan x="10" y="1802">  │ │ │ └── resolve@0.3.1 </tspan>
<tspan x="10" y="1818">  │ │ ├─┬ ruglify@1.0.0 </tspan>
<tspan x="10" y="1834">  │ │ │ └─┬ uglify-js@2.2.5 </tspan>
<tspan x="10" y="1850">  │ │ │   └── optimist@0.3.7 </tspan>
<tspan x="10" y="1866">  │ │ └─┬ uglify-js@2.4.24 </tspan>
<tspan x="10" y="1882">  │ │   ├── async@0.2.10 </tspan>
<tspan x="10" y="1898">  │ │   ├── source-map@0.1.34 </tspan>
<tspan x="10" y="1914">  │ │   ├── uglify-to-browserify@1.0.2 </tspan>
<tspan x="10" y="1930">  │ │   └─┬ yargs@3.5.4 </tspan>
<tspan x="10" y="1946">  │ │     ├── camelcase@1.2.1 </tspan>
<tspan x="10" y="1962">  │ │     ├── decamelize@1.2.0 </tspan>
<tspan x="10" y="1978">  │ │     ├── window-size@0.1.0 </tspan>
<tspan x="10" y="1994">  │ │     └── wordwrap@0.0.2 </tspan>
<tspan x="10" y="2010">  │ ├─┬ url@0.10.3 </tspan>
<tspan x="10" y="2026">  │ │ ├── punycode@1.3.2 </tspan>
<tspan x="10" y="2042">  │ │ └── querystring@0.2.0 </tspan>
<tspan x="10" y="2058">  │ ├─┬ util@0.10.3 </tspan>
<tspan x="10" y="2074">  │ │ └── inherits@2.0.1 </tspan>
<tspan x="10" y="2090">  │ ├─┬ vm-browserify@0.0.4 </tspan>
<tspan x="10" y="2106">  │ │ └── indexof@0.0.1 </tspan>
<tspan x="10" y="2122">  │ └── xtend@3.0.0 </tspan>
<tspan x="10" y="2138">  ├─┬ concat-stream@1.0.1 </tspan>
<tspan x="10" y="2154">  │ └─┬ bops@0.0.6 </tspan>
<tspan x="10" y="2170">  │   ├── base64-js@0.0.2 </tspan>
<tspan x="10" y="2186">  │   └── to-utf8@0.0.1 </tspan>
<tspan x="10" y="2202">  ├─┬ ecstatic@0.4.13 </tspan>
<tspan x="10" y="2218">  │ ├── mime@1.2.11 </tspan>
<tspan x="10" y="2234">  │ └── optimist@0.3.7 </tspan>
<tspan x="10" y="2250">  ├── ent@0.0.7 </tspan>
<tspan x="10" y="2266">  ├─┬ glob@3.2.11 </tspan>
<tspan x="10" y="2282">  │ └─┬ minimatch@0.3.0 </tspan>
<tspan x="10" y="2298">  │   ├── lru-cache@2.7.3 </tspan>
<tspan x="10" y="2314">  │   └── sigmund@1.0.1 </tspan>
<tspan x="10" y="2330">  ├── jsonify@0.0.0 </tspan>
<tspan x="10" y="2346">  ├─┬ object-inspect@0.1.3 </tspan>
<tspan x="10" y="2362">  │ └─┬ tape@1.0.4 </tspan>
<tspan x="10" y="2378">  │   └── deep-equal@0.0.0 </tspan>
<tspan x="10" y="2394">  ├─┬ optimist@0.5.2 </tspan>
<tspan x="10" y="2410">  │ └── wordwrap@0.0.3 </tspan>
<tspan x="10" y="2426">  ├── resolve@0.4.3 </tspan>
<tspan x="10" y="2442">  ├── shallow-copy@0.0.1 </tspan>
<tspan x="10" y="2458">  ├── shell-quote@1.3.3 </tspan>
<tspan x="10" y="2474">  ├─┬ tap-finished@0.0.1 </tspan>
<tspan x="10" y="2490">  │ └─┬ tap-parser@0.2.1 </tspan>
<tspan x="10" y="2506">  │   └─┬ split@0.1.2 </tspan>
<tspan x="10" y="2522">  │     └── through@1.1.2 </tspan>
<tspan x="10" y="2538">  ├── win-spawn@2.0.0 </tspan>
<tspan x="10" y="2554">  └─┬ xhr-write-stream@0.1.2 </tspan>
<tspan x="10" y="2570">    ├── concat-stream@0.1.1 </tspan>
<tspan x="10" y="2586">    └── ordered-emitter@0.1.1</tspan>
</text>
</svg>
